<?xml version="1.0" encoding="utf-8"?>
<!-- Generator: Adobe Illustrator 22.0.1, SVG Export Plug-In . SVG Version: 6.00 Build 0)  -->
<svg version="1.1" id="Layer_1" xmlns="http://www.w3.org/2000/svg" xmlns:xlink="http://www.w3.org/1999/xlink" x="0px" y="0px"
	 viewBox="0 0 288 435" style="enable-background:new 0 0 288 435;" xml:space="preserve">
<style type="text/css">
	.st0{fill:#003764;}
	.st1{fill:#6BC4E8;}
	.st2{fill:url(#SVGID_1_);}
</style>
<g>
	<g>
		<polygon class="st0" points="15.6,330.5 15.7,88.6 272.9,88.6 272.9,331.7 145.4,430.5 		"/>
		<path class="st1" d="M270.9,90.6v240.1l-125.5,97.3L17.6,329.5l0.1-238.9H270.9 M274.9,86.6H13.7l-0.1,244.8L145.4,433
			l129.5-100.4V86.6L274.9,86.6z"/>
	</g>
</g>
<linearGradient id="SVGID_1_" gradientUnits="userSpaceOnUse" x1="144.6444" y1="276.3689" x2="144.6444" y2="102.6148">
	<stop  offset="0" style="stop-color:#3CB4E5"/>
	<stop  offset="0.2901" style="stop-color:#40B5E6"/>
	<stop  offset="0.5786" style="stop-color:#4BB9E6"/>
	<stop  offset="0.8656" style="stop-color:#5FC0E8"/>
	<stop  offset="1" style="stop-color:#6BC4E8"/>
</linearGradient>
<polygon class="st2" points="37.8,106.1 251.5,106.1 251.5,147.1 251.5,164.3 209.4,194.3 209.4,144.9 75.5,144.9 75.6,300.3 
	146.3,353.2 209.4,304.6 209.4,285 251.5,255.1 251.5,315.4 145.7,400.7 37.8,315.4 "/>
<g>
	<g>
		<path class="st1" d="M52.1,25.5c-2,8.3-9.2,13.8-17.7,13.8c-11,0-18.4-8.7-18.4-18.2C16,12.2,22.9,3,34.3,3
			c11,0,16.8,8.5,17.8,13.9h-9.4c-1-2.6-3.6-6.1-8.5-6.1c-6,0-9.4,5.2-9.4,10.2c0,5.3,3.6,10.4,9.4,10.4c5.6,0,7.8-4.7,8.4-5.9H52.1
			z"/>
		<path class="st1" d="M55.2,21.5C55.2,10.1,64,3,73.6,3c10.8,0,18.5,8.4,18.5,18.2c0,9.7-7.7,18.2-18.5,18.2
			C62.6,39.3,55.2,30.6,55.2,21.5L55.2,21.5z M64.1,21.1c0,5.3,3.6,10.4,9.6,10.4c6.3,0,9.4-5.8,9.4-10.3c0-4.5-3.1-10.4-9.5-10.4
			C67.5,10.8,64.1,16.1,64.1,21.1L64.1,21.1z"/>
		<path class="st1" d="M101.1,38.6h-9.7l13.8-35h7.7l13.4,35h-9.8l-1.7-5.1h-12.2L101.1,38.6z M108.7,14.3l-3.8,12.2h7.7L108.7,14.3
			z"/>
		<path class="st1" d="M136.8,27.1c0,4.1,2.5,4.8,3.6,4.8c2.1,0,3.4-1.7,3.4-3.4c0-1.8-1.5-2.4-6.9-4.7c-2.5-1-8.6-3.5-8.6-10
			c0-7,6.4-10.8,12.2-10.8c4.8,0,11.6,2.5,11.8,10.9h-8.8c-0.2-1.2-0.5-3.4-3.2-3.4c-1.6,0-3.1,1.1-3.1,2.7c0,1.6,0.9,2,7.2,4.9
			c6.5,2.9,8.2,6,8.2,10c0,5.6-2.9,11.2-12.2,11.2c-9.2,0-12.9-5.4-12.6-12.2H136.8z"/>
		<path class="st1" d="M161.2,11.5h-6.9V3.7H177v7.8h-6.9v27.1h-8.9V11.5z"/>
		<path class="st1" d="M180.8,3.7h8.9v27.1h10.4v7.8h-19.3V3.7z"/>
		<path class="st1" d="M203.6,3.7h8.9v35h-8.9V3.7z"/>
		<path class="st1" d="M240,25l-0.2-21.3h8.6v35h-7.8l-13.4-21.1l0.2,21.1h-8.6v-35h7.7L240,25z"/>
		<path class="st1" d="M254.7,3.7h19.8v7.8h-10.9v5.4h10.5v7.8h-10.5v6h10.9v7.8h-19.8V3.7z"/>
	</g>
	<g>
		<path class="st1" d="M15.8,64.7c0-6.1,4.7-10.6,11-10.6c3,0,5.8,1,7.6,3L33,58.5c-1.7-1.7-3.8-2.5-6.2-2.5c-5,0-8.8,3.7-8.8,8.7
			c0,5,3.8,8.7,8.8,8.7c2.4,0,4.5-0.7,6.2-2.5l1.4,1.4c-1.9,2-4.6,3.1-7.7,3.1C20.4,75.3,15.8,70.8,15.8,64.7z"/>
		<path class="st1" d="M56.2,64.7c0-6.1,4.7-10.6,11-10.6c6.3,0,11,4.5,11,10.6c0,6.1-4.7,10.6-11,10.6
			C60.9,75.3,56.2,70.8,56.2,64.7z M75.9,64.7c0-5-3.7-8.7-8.8-8.7c-5,0-8.8,3.7-8.8,8.7c0,5,3.8,8.7,8.8,8.7
			C72.2,73.4,75.9,69.7,75.9,64.7z"/>
		<path class="st1" d="M102.5,54.3h2.2v19h11.7v1.9h-13.9V54.3z"/>
		<path class="st1" d="M139.5,54.3h2.2v19h11.7v1.9h-13.9V54.3z"/>
		<path class="st1" d="M191.2,73.3v1.9h-14.8V54.3h14.3v1.9h-12.1v7.4h10.8v1.9h-10.8v7.8H191.2z"/>
		<path class="st1" d="M230.4,64.7h2.1v8c-2,1.8-4.8,2.7-7.7,2.7c-6.4,0-11-4.5-11-10.6c0-6.1,4.7-10.6,11-10.6c3.2,0,5.9,1,7.8,3
			l-1.4,1.4c-1.8-1.7-3.9-2.4-6.3-2.4c-5.2,0-9,3.7-9,8.7c0,5,3.8,8.7,8.9,8.7c2,0,3.9-0.4,5.5-1.6V64.7z"/>
		<path class="st1" d="M273,73.3v1.9h-14.8V54.3h14.3v1.9h-12.1v7.4h10.8v1.9h-10.8v7.8H273z"/>
	</g>
	<path class="st1" d="M273.6,47.8H15.7c-0.8,0-1.4-0.6-1.4-1.4l0,0c0-0.8,0.6-1.4,1.4-1.4h257.9c0.8,0,1.4,0.6,1.4,1.4l0,0
		C275,47.1,274.4,47.8,273.6,47.8z"/>
</g>
</svg>
