<?xml version="1.0" encoding="utf-8"?>
<!-- Generator: Adobe Illustrator 27.0.0, SVG Export Plug-In . SVG Version: 6.00 Build 0)  -->
<svg version="1.1" id="Layer_1" xmlns="http://www.w3.org/2000/svg" xmlns:xlink="http://www.w3.org/1999/xlink" x="0px" y="0px"
	 viewBox="0 0 3200 847.1" style="enable-background:new 0 0 3200 847.1;" xml:space="preserve">
<style type="text/css">
	.st0{fill:#003764;}
	.st1{fill:url(#SVGID_1_);}
</style>
<g>
	<path class="st0" d="M1091.6,288.1c-17.7,75.7-83.8,125.7-161.1,125.7c-99.9,0-167.6-79-167.6-166c0-80.6,62.8-164.4,167.6-164.4
		c99.9,0,153.1,77.3,162.8,127.3h-85.4c-9.7-24.2-32.2-54.8-77.3-54.8c-54.8,0-85.4,46.7-85.4,93.5c0,48.3,32.2,95.1,85.4,95.1
		c51.6,0,70.9-43.5,75.7-53.2h85.4V288.1z"/>
	<path class="st0" d="M1120.6,251c0-103.1,80.6-167.6,167.6-167.6c98.3,0,167.6,75.7,167.6,166c0,88.6-69.3,166-167.6,166
		C1188.2,413.8,1120.6,334.8,1120.6,251L1120.6,251z M1202.7,247.8c0,48.3,32.2,95.1,87,95.1c58,0,85.4-53.2,85.4-93.5
		s-29-95.1-87-95.1C1233.4,154.4,1202.7,202.7,1202.7,247.8L1202.7,247.8z"/>
	<path class="st0" d="M1537.9,407.3h-88.6L1575,88.3h69.3l122.5,319.1h-88.6l-16.1-46.7h-109.6L1537.9,407.3z M1607.2,186.6
		l-33.8,111.2h69.3L1607.2,186.6z"/>
	<path class="st0" d="M1863.4,302.6c0,37.1,22.6,43.5,32.2,43.5c19.3,0,30.6-16.1,30.6-30.6c0-16.1-12.9-22.6-62.8-43.5
		c-22.6-9.7-79-32.2-79-90.2c0-64.5,58-98.3,111.2-98.3c43.5,0,106.4,22.6,108,99.9h-79c-1.6-11.3-4.8-30.6-29-30.6
		c-14.5,0-29,9.7-29,24.2s8.1,17.7,66.1,45.1c59.6,25.8,74.1,54.8,74.1,90.2c0,51.6-25.8,101.5-111.2,101.5
		c-83.8,0-117.6-48.3-114.4-111.2C1782.8,302.6,1863.4,302.6,1863.4,302.6z"/>
	<path class="st0" d="M2085.8,160.8h-62.8V89.9h206.3v70.9h-62.8v246.5h-80.6V160.8L2085.8,160.8z"/>
	<path class="st0" d="M2264.7,89.9h80.6v246.5h95.1v70.9h-175.6V89.9L2264.7,89.9z"/>
	<path class="st0" d="M2472.5,89.9h80.6V409h-80.6V89.9z"/>
	<path class="st0" d="M2802.9,283.3l-1.6-193.4h79V409h-70.9l-122.5-191.8l1.6,191.8h-79V89.9h69.3L2802.9,283.3z"/>
	<path class="st0" d="M2936.6,89.9h180.5v70.9h-99.9v48.3h95.1V280h-95.1v54.8h99.9v70.9h-180.5V89.9L2936.6,89.9z"/>
</g>
<g>
	<path class="st0" d="M761.2,644.2c0-54.8,43.5-96.7,99.9-96.7c27.4,0,53.2,9.7,69.3,27.4l-12.9,12.9
		c-16.1-16.1-33.8-22.6-56.4-22.6c-45.1,0-80.6,33.8-80.6,79s33.8,79,80.6,79c22.6,0,40.3-6.4,56.4-22.6l12.9,12.9
		c-17.7,17.7-41.9,29-69.3,29C804.7,740.9,761.2,700.6,761.2,644.2z"/>
	<path class="st0" d="M1130.2,644.2c0-54.8,43.5-96.7,99.9-96.7c58,0,99.9,40.3,99.9,96.7s-43.5,96.7-99.9,96.7
		C1172.1,740.9,1130.2,700.6,1130.2,644.2z M1309.1,644.2c0-45.1-33.8-79-80.6-79c-45.1,0-80.6,33.8-80.6,79s33.8,79,80.6,79
		S1309.1,691,1309.1,644.2z"/>
	<path class="st0" d="M1552.4,550.8h19.3v172.4h106.4v17.7h-125.7V550.8z"/>
	<path class="st0" d="M1887.6,550.8h19.3v172.4h106.4v17.7H1886V550.8H1887.6z"/>
	<path class="st0" d="M2359.7,723.2v17.7h-135.4V550.8h130.5v17.7h-109.6v67.7h98.3v17.7h-98.3v69.3H2359.7z"/>
	<path class="st0" d="M2715.8,644.2h19.3v72.5c-17.7,16.1-43.5,24.2-69.3,24.2c-58,0-99.9-40.3-99.9-96.7s43.5-96.7,99.9-96.7
		c29,0,53.2,9.7,70.9,27.4l-12.9,12.9c-16.1-16.1-35.5-22.6-58-22.6c-46.7,0-82.2,33.8-82.2,79s33.8,79,80.6,79
		c17.7,0,35.5-3.2,50-14.5L2715.8,644.2L2715.8,644.2z"/>
	<path class="st0" d="M3102.6,723.2v17.7h-135.4V550.8h130.5v17.7h-109.6v67.7h98.3v17.7h-98.3v69.3H3102.6z"/>
</g>
<path class="st0" d="M3107.4,491.1H761.2c-8.1,0-12.9-4.8-12.9-12.9l0,0c0-8.1,4.8-12.9,12.9-12.9H3109c8.1,0,12.9,4.8,12.9,12.9
	l0,0C3121.9,484.7,3115.5,491.1,3107.4,491.1z"/>
<g>
	<g>
		<g>
			<polygon class="st0" points="78,549.1 326.2,740.5 570.2,551.4 570.2,87.8 78.2,87.8 			"/>
		</g>
		<linearGradient id="SVGID_1_" gradientUnits="userSpaceOnUse" x1="324.8545" y1="454.7527" x2="324.8545" y2="127.3636">
			<stop  offset="0" style="stop-color:#3CB4E5"/>
			<stop  offset="0.2901" style="stop-color:#40B5E6"/>
			<stop  offset="0.5786" style="stop-color:#4BB9E6"/>
			<stop  offset="0.8657" style="stop-color:#5FC0E8"/>
			<stop  offset="1" style="stop-color:#6BC4E8"/>
		</linearGradient>
		<polygon class="st1" points="123.6,133.9 526.1,133.9 526.1,211.2 526.1,243.7 446.8,300 446.8,207.1 194.5,207.1 194.7,499.9 
			327.9,599.5 446.8,508 446.8,471.1 526.1,414.6 526.1,528.3 326.9,688.9 123.6,528.3 		"/>
	</g>
</g>
</svg>
