<?xml version="1.0" encoding="utf-8"?>
<!-- Generator: Adobe Illustrator 22.0.1, SVG Export Plug-In . SVG Version: 6.00 Build 0)  -->
<svg version="1.1" id="Layer_1" xmlns="http://www.w3.org/2000/svg" xmlns:xlink="http://www.w3.org/1999/xlink" x="0px" y="0px"
	 viewBox="0 0 288 432" style="enable-background:new 0 0 288 432;" xml:space="preserve">
<style type="text/css">
	.st0{fill:#003764;}
	.st1{fill:url(#SVGID_1_);}
</style>
<g>
	<polygon class="st0" points="13,326.5 144.7,428 274.2,327.6 274.2,81.6 13.1,81.6 	"/>
</g>
<linearGradient id="SVGID_1_" gradientUnits="userSpaceOnUse" x1="144" y1="276.3689" x2="144" y2="102.6148">
	<stop  offset="0" style="stop-color:#3CB4E5"/>
	<stop  offset="0.2901" style="stop-color:#40B5E6"/>
	<stop  offset="0.5786" style="stop-color:#4BB9E6"/>
	<stop  offset="0.8656" style="stop-color:#5FC0E8"/>
	<stop  offset="1" style="stop-color:#6BC4E8"/>
</linearGradient>
<polygon class="st1" points="37.2,106.1 250.8,106.1 250.8,147.1 250.8,164.3 208.7,194.3 208.7,144.9 74.8,144.9 74.9,300.3 
	145.6,353.2 208.7,304.6 208.7,285 250.8,255.1 250.8,315.4 145.1,400.7 37.2,315.4 "/>
<g>
	<g>
		<path class="st0" d="M51.4,25.5c-2,8.3-9.2,13.8-17.7,13.8c-11,0-18.4-8.7-18.4-18.2C15.3,12.2,22.2,3,33.7,3
			c11,0,16.8,8.5,17.8,13.9h-9.4c-1-2.6-3.6-6.1-8.5-6.1c-6,0-9.4,5.2-9.4,10.2c0,5.3,3.6,10.4,9.4,10.4c5.6,0,7.8-4.7,8.4-5.9H51.4
			z"/>
		<path class="st0" d="M54.6,21.5C54.6,10.1,63.4,3,73,3c10.8,0,18.5,8.4,18.5,18.2c0,9.7-7.7,18.2-18.5,18.2
			C61.9,39.3,54.6,30.6,54.6,21.5L54.6,21.5z M63.5,21.1c0,5.3,3.6,10.4,9.6,10.4c6.3,0,9.4-5.8,9.4-10.3c0-4.5-3.1-10.4-9.5-10.4
			C66.9,10.8,63.5,16.1,63.5,21.1L63.5,21.1z"/>
		<path class="st0" d="M100.4,38.6h-9.7l13.8-35h7.7l13.4,35h-9.8l-1.7-5.1H102L100.4,38.6z M108,14.3l-3.8,12.2h7.7L108,14.3z"/>
		<path class="st0" d="M136.2,27.1c0,4.1,2.5,4.8,3.6,4.8c2.1,0,3.4-1.7,3.4-3.4c0-1.8-1.5-2.4-6.9-4.7c-2.5-1-8.6-3.5-8.6-10
			c0-7,6.4-10.8,12.2-10.8c4.8,0,11.6,2.5,11.8,10.9H143c-0.2-1.2-0.5-3.4-3.2-3.4c-1.6,0-3.1,1.1-3.1,2.7c0,1.6,0.9,2,7.2,4.9
			c6.5,2.9,8.2,6,8.2,10c0,5.6-2.9,11.2-12.2,11.2c-9.2,0-12.9-5.4-12.6-12.2H136.2z"/>
		<path class="st0" d="M160.6,11.5h-6.9V3.7h22.7v7.8h-6.9v27.1h-8.9V11.5z"/>
		<path class="st0" d="M180.2,3.7h8.9v27.1h10.4v7.8h-19.3V3.7z"/>
		<path class="st0" d="M203,3.7h8.9v35H203V3.7z"/>
		<path class="st0" d="M239.4,25l-0.2-21.3h8.6v35H240l-13.4-21.1l0.2,21.1h-8.6v-35h7.7L239.4,25z"/>
		<path class="st0" d="M254.1,3.7h19.8v7.8H263v5.4h10.5v7.8H263v6h10.9v7.8h-19.8V3.7z"/>
	</g>
	<g>
		<path class="st0" d="M15.1,64.7c0-6.1,4.7-10.6,11-10.6c3,0,5.8,1,7.6,3l-1.4,1.4c-1.7-1.7-3.8-2.5-6.2-2.5c-5,0-8.8,3.7-8.8,8.7
			c0,5,3.8,8.7,8.8,8.7c2.4,0,4.5-0.7,6.2-2.5l1.4,1.4c-1.9,2-4.6,3.1-7.7,3.1C19.8,75.3,15.1,70.8,15.1,64.7z"/>
		<path class="st0" d="M55.6,64.7c0-6.1,4.7-10.6,11-10.6c6.3,0,11,4.5,11,10.6c0,6.1-4.7,10.6-11,10.6
			C60.2,75.3,55.6,70.8,55.6,64.7z M75.3,64.7c0-5-3.7-8.7-8.8-8.7c-5,0-8.8,3.7-8.8,8.7c0,5,3.8,8.7,8.8,8.7
			C71.6,73.4,75.3,69.7,75.3,64.7z"/>
		<path class="st0" d="M101.9,54.3h2.2v19h11.7v1.9h-13.9V54.3z"/>
		<path class="st0" d="M138.8,54.3h2.2v19h11.7v1.9h-13.9V54.3z"/>
		<path class="st0" d="M190.6,73.3v1.9h-14.8V54.3h14.3v1.9H178v7.4h10.8v1.9H178v7.8H190.6z"/>
		<path class="st0" d="M229.8,64.7h2.1v8c-2,1.8-4.8,2.7-7.7,2.7c-6.4,0-11-4.5-11-10.6c0-6.1,4.7-10.6,11-10.6c3.2,0,5.9,1,7.8,3
			l-1.4,1.4c-1.8-1.7-3.9-2.4-6.3-2.4c-5.2,0-9,3.7-9,8.7c0,5,3.8,8.7,8.9,8.7c2,0,3.9-0.4,5.5-1.6V64.7z"/>
		<path class="st0" d="M272.3,73.3v1.9h-14.8V54.3h14.3v1.9h-12.1v7.4h10.8v1.9h-10.8v7.8H272.3z"/>
	</g>
	<path class="st0" d="M272.9,47.8H15c-0.8,0-1.4-0.6-1.4-1.4l0,0c0-0.8,0.6-1.4,1.4-1.4h257.9c0.8,0,1.4,0.6,1.4,1.4l0,0
		C274.4,47.1,273.7,47.8,272.9,47.8z"/>
</g>
</svg>
